# xmcd CD database file
#
# Track frame offsets:
#	150
#	14252
#	25220
#	38856
#	54760
#	69236
#	82845
#	100620
#	116038
#	133140
#	145357
#	159978
#	176730
#	190176
#	204433
#	217989
#	232893
#	247825
#	260641
#	278581
#
# Disc length: 3908 seconds
#
# Revision: 0
# Processed by: cddbd v1.5.2PL0 Copyright (c) Steve Scherf et al.
# Submitted via: CDex 1.75
#
DISCID=060f4214
DTITLE=Oscar Peterson - Absolutelt Essential 3 CD Collection [2]
DYEAR=2016
DGENRE=Jazz
TTITLE0=Oscar Peterson - I Get A Kick Out Of You
TTITLE1=Oscar Peterson - Exactly Like you
TTITLE2=Oscar Peterson - The Way You Look Tonight
TTITLE3=Oscar Peterson - Laura
TTITLE4=Oscar Peterson - Love For Sale
TTITLE5=Oscar Peterson - How High The Moon
TTITLE6=Oscar Peterson - You Go To My Head
TTITLE7=Oscar Peterson - These Fooluish Things
TTITLE8=Oscar Peterson - Long Ago And Far Away
TTITLE9=Oscar Peterson - They Can't Take That Away From Me
TTITLE10=Oscar Peterson - It Ain't Necessarily So
TTITLE11=Oscar Peterson - Night And Day
TTITLE12=Oscar Peterson - Fascinating Rhythm
TTITLE13=Oscar Peterson - In A Mellow Tone
TTITLE14=Oscar Peterson - Sophisticated Lady
TTITLE15=Oscar Peterson - Take The "A" Train
TTITLE16=Oscar Peterson - Prelude To A Kiss
TTITLE17=Oscar Peterson - Do Nothin' Till You Hear From Me
TTITLE18=Oscar Peterson - Don't Get Around Much Anymore
TTITLE19=Oscar Peterson - Easter Parade
EXTD=YEAR: 2016
EXTT0=
EXTT1=
EXTT2=
EXTT3=
EXTT4=
EXTT5=
EXTT6=
EXTT7=
EXTT8=
EXTT9=
EXTT10=
EXTT11=
EXTT12=
EXTT13=
EXTT14=
EXTT15=
EXTT16=
EXTT17=
EXTT18=
EXTT19=
PLAYORDER=
